<svg width="90" height="90" viewBox="0 0 90 90" fill="none" xmlns="http://www.w3.org/2000/svg">
<path d="M90 0H0V90H90V0Z" fill="#8764C1"/>
<path d="M5.14305 54H84.8573C84.9859 54 85.0502 54.0643 85.0502 54.1929V54.7071C85.0502 54.8357 84.9859 54.9 84.8573 54.9H5.14305C5.01448 54.9 4.9502 54.8357 4.9502 54.7071V54.1929C4.9502 54.0643 5.07877 54 5.14305 54Z" fill="#FFB906"/>
<path d="M5.78564 34.3931H11.2499V47.4431H7.71421V37.3502H5.78564V34.3931Z" fill="white"/>
<path d="M13.6284 43.6505V40.3076H20.8284V43.6505H13.6284Z" fill="white"/>
<path d="M35.4856 36.5142C36.6427 36.5142 37.5427 36.8999 38.2499 37.6713C38.957 38.4427 39.2784 39.4713 39.2784 40.757V47.3784H35.6142V41.207C35.6142 40.1141 35.2284 39.5999 34.457 39.5999C33.4284 39.5999 32.9142 40.2427 32.9142 41.5927V47.3784H29.3784V41.207C29.3784 40.1141 28.9927 39.5999 28.2213 39.5999C27.707 39.5999 27.3213 39.7927 27.0642 40.1141C26.807 40.4356 26.6784 40.9498 26.6784 41.5927V47.3784H23.0142V36.8356H25.5856L26.0999 37.9927C26.9356 37.0284 27.9642 36.5142 29.1856 36.5142C29.7642 36.5142 30.407 36.6427 30.9213 36.8999C31.4356 37.157 31.8856 37.5427 32.207 38.057C32.4642 37.7356 32.7856 37.4784 33.107 37.2213C33.4284 36.9642 33.8142 36.7713 34.1999 36.707C34.6499 36.5784 35.0999 36.5142 35.4856 36.5142Z" fill="white"/>
<path d="M41.4644 47.4432V36.8361H45.1286V47.4432H41.4644ZM41.5286 35.4861V32.4004H45.1286V35.4861H41.5286Z" fill="white"/>
<path d="M53.8067 36.5142C55.0281 36.5142 55.9924 36.8999 56.7638 37.7356C57.471 38.5713 57.8567 39.5999 57.8567 40.9498V47.3784H54.1924V41.3998C54.1924 40.1784 53.7424 39.5356 52.8424 39.5356C52.521 39.5356 52.1352 39.5999 51.8781 39.7927C51.621 39.9856 51.3638 40.2427 51.2995 40.4998C51.171 40.8856 51.1067 41.2713 51.1067 41.657V47.3141H47.4424V36.8356H50.0138L50.5281 37.9284C51.2995 36.9642 52.4567 36.5142 53.8067 36.5142Z" fill="white"/>
<path d="M59.9141 47.4428V44.0356H63.4498V47.4428H59.9141Z" fill="white"/>
<path d="M71.5499 36.7715H72.5142V40.1144H71.0999C70.457 40.1144 70.007 40.2429 69.6856 40.5644C69.4284 40.8858 69.2356 41.3358 69.2356 42.043V47.443H65.5713V36.8358H68.0142L68.5927 37.9929C69.3642 37.1572 70.3284 36.7715 71.5499 36.7715Z" fill="white"/>
<path d="M79.0074 47.7645C77.4646 47.7645 76.1789 47.3145 75.2146 46.4145C74.2503 45.5145 73.8003 44.3574 73.8003 42.8788V36.8359H77.4646V42.7502C77.4646 43.3288 77.5931 43.7788 77.8503 44.0359C78.1074 44.3574 78.4931 44.4859 79.0074 44.4859C79.5217 44.4859 79.9074 44.3574 80.1646 44.0359C80.4217 43.7145 80.6146 43.2645 80.6146 42.7502V36.8359H84.2789V42.8788C84.2789 43.8431 84.086 44.7431 83.636 45.4502C83.186 46.1574 82.5431 46.8002 81.7717 47.1859C80.936 47.5717 80.036 47.7645 79.0074 47.7645Z" fill="white"/>
</svg>
