<svg width="100" height="46" viewBox="0 0 100 46" fill="none" xmlns="http://www.w3.org/2000/svg">
<path d="M22.2781 18.2H25.0781V28H22.2781V21.126L20.0381 22.316V19.39L22.2781 18.2ZM26.617 24.962V22.526H32.217V24.962H26.617ZM44.257 18.2V28H41.457V22.554L39.987 26.754H37.887L36.417 22.554V28H33.617V18.2H36.417H37.117L38.937 23.324L40.757 18.2H44.257ZM45.6619 18.2H48.4619V28H45.6619V18.2ZM54.8992 18.2H57.6992V28H55.4592L52.6592 23.38V28H49.8592V18.2H52.0992L54.8992 22.82V18.2ZM59.1014 28V25.2H61.9014V28H59.1014ZM68.6746 27.986L66.6166 24.906H66.0986V27.986H63.2986V18.186H66.0986H67.0786C68.152 18.186 69.0386 18.5033 69.7386 19.138C70.4386 19.7633 70.7886 20.594 70.7886 21.63C70.7886 22.8247 70.2753 23.7347 69.2486 24.36L71.7686 27.986H68.6746ZM67.0786 20.762H66.0986V22.47H67.0786C67.368 22.4793 67.592 22.414 67.7506 22.274C67.9093 22.1247 67.9886 21.91 67.9886 21.63C67.9886 21.35 67.9093 21.1353 67.7506 20.986C67.592 20.8367 67.368 20.762 67.0786 20.762ZM78.3503 27.384C77.6503 27.944 76.7403 28.224 75.6203 28.224C74.5003 28.224 73.5903 27.944 72.8903 27.384C72.1903 26.8147 71.8403 26.0213 71.8403 25.004V18.2H74.6403V24.416C74.6403 25.144 74.9669 25.508 75.6203 25.508C76.2736 25.508 76.6003 25.144 76.6003 24.416V18.2H79.4003V25.004C79.4003 26.0213 79.0503 26.8147 78.3503 27.384Z" fill="#8764C1"/>
<path d="M22.9047 30.6094L77 29.4399L22.9458 33.962L22.0617 34.0399L22 30.6094H22.9047Z" fill="#8A0007"/>
</svg>
