<svg width="160" height="358" viewBox="0 0 160 358" fill="none" xmlns="http://www.w3.org/2000/svg">
<g filter="url(#filter0_d)">
<path d="M160.001 189.67V293.391C160.001 311.27 125.064 298.064 113.013 294.61C68.5575 281.911 20.4562 235.181 29.9752 190.584C35.4436 164.476 58.5322 149.238 70.0765 141.721C107.849 116.832 148.456 122.115 160.406 124.146C160.203 146.021 160.068 167.863 160.001 189.67Z" fill="url(#paint0_linear)"/>
</g>
<g filter="url(#filter1_d)">
<path d="M160 329.352C160 329.352 124.355 354.038 114.532 346.317C107.342 340.628 108.962 327.422 109.772 321.835C116.658 270.939 72.7091 210.292 29.6711 164.476C-5.16434 127.295 -3.03776 65.0221 38.9876 36.1713L72.2028 13.5173C78.1774 9.75858 102.785 -4.56523 132.658 2.64747C142.586 5.10265 151.896 9.59977 160 15.8538V329.352Z" fill="url(#paint1_linear)"/>
</g>
<path d="M103.392 273.276C102.784 271.448 102.481 271.244 102.481 270.737C102.481 270.229 104.101 270.229 102.075 269.721C102.075 269.721 99.0375 261.898 98.0249 259.765C97.0122 257.632 93.7717 249.911 93.7717 249.911C95.797 248.184 93.7717 250.622 93.7717 249.911C92.9195 248.069 91.9731 246.272 90.9363 244.527C88.9109 240.971 87.5945 238.229 86.1768 235.689C86.3793 233.149 87.5945 231.524 88.3033 229.797L88.8097 228.578C89.1282 227.919 89.6143 227.356 90.2187 226.946C90.8232 226.536 91.5247 226.293 92.2527 226.241H119.493L146.329 225.937C146.786 225.887 147.249 225.954 147.674 226.132C148.099 226.309 148.472 226.592 148.759 226.952C149.265 227.562 149.468 228.679 149.468 230.406L145.316 276.222C145.099 278.487 144.692 280.73 144.101 282.927C143.898 284.248 142.784 284.959 140.86 285.162L114.936 285.467H107.139L103.392 273.276Z" stroke="url(#paint2_linear)" stroke-width="0.254052" stroke-miterlimit="10"/>
<path fill-rule="evenodd" clip-rule="evenodd" d="M85.0632 189.162C92.0822 185.411 98.6126 180.804 104.506 175.447C110.542 170.187 116.038 164.333 120.911 157.974C125.24 152.172 128.908 145.902 131.848 139.282C134.582 133.086 136 127.397 136 122.216C136 117.035 134.481 112.159 131.443 108.705C128.405 105.251 123.24 103.422 116.253 103.422C112.914 103.326 109.585 103.842 106.43 104.946C104.167 105.731 102.071 106.937 100.253 108.501C98.8261 109.886 97.7498 111.593 97.1138 113.479C96.5168 115.141 96.2085 116.894 96.2024 118.66C96.192 120.777 96.5696 122.877 97.3163 124.857C97.78 126.072 98.1193 127.332 98.329 128.616C98.329 129.428 97.6201 129.936 96.2024 130.241L89.4176 131.46L77.0632 133.695C71.9999 134.609 65.6201 136.032 58.1265 138.165C55.291 138.978 53.0632 139.486 51.4429 139.79C50.209 140.041 48.9548 140.177 47.6961 140.197C46.6834 140.197 45.6708 139.486 44.9619 137.962C44.1616 136.319 43.5827 134.577 43.2404 132.781C42.9366 130.749 42.6328 128.616 42.4303 126.381C42.2277 124.146 42.2277 122.419 42.2277 120.997C42.0757 112.394 44.3959 103.93 48.9113 96.6157C53.4863 89.3837 59.4816 83.162 66.5315 78.33C73.9997 73.2623 82.2434 69.4534 90.9366 67.0538C110.296 61.1866 131.019 61.6849 150.076 68.476C155.342 70.4062 160 71.8284 160 72.8443C159.696 80.3617 160 169.657 159.595 184.997C159.494 187.13 153.823 190.482 144.709 198.101C139.848 202.266 134.987 206.228 130.329 209.886C130.024 210.264 129.645 210.575 129.215 210.8C128.688 211.088 128.093 211.228 127.494 211.206H126.38C126.035 211.124 125.72 210.948 125.468 210.698L115.24 205.924L106.43 202.063C103.555 200.847 100.614 199.796 97.6201 198.914C94.5822 198 91.3416 197.086 87.5948 196.273C86.4865 196.099 85.4408 195.645 84.5568 194.952C84.0017 194.378 83.6772 193.618 83.6454 192.819L85.0632 189.162ZM103.392 273.276C102.785 271.447 102.481 271.244 102.481 270.736C102.481 270.228 104.101 270.228 102.076 269.72C102.076 269.72 99.0378 261.898 98.0252 259.765C97.0125 257.632 93.772 249.911 93.772 249.911C95.7973 248.184 93.772 250.622 93.772 249.911C92.9199 248.068 91.9734 246.271 90.9366 244.527C88.9113 240.971 87.5948 238.228 86.1771 235.689C86.3796 233.149 87.5948 231.524 88.3037 229.797L88.81 228.578C89.1286 227.919 89.6146 227.356 90.2191 226.946C90.8235 226.536 91.5251 226.293 92.253 226.241H119.494L146.329 225.936C146.787 225.887 147.249 225.954 147.674 226.131C148.099 226.309 148.472 226.591 148.759 226.952C149.266 227.562 149.468 228.679 149.468 230.406L145.316 276.222C145.099 278.487 144.693 280.73 144.101 282.927C143.899 284.247 142.785 284.959 140.861 285.162L114.937 285.466H107.139L103.392 273.276Z" fill="url(#paint3_linear)" fill-opacity="0.3" stroke="url(#paint4_linear)" stroke-width="0.254052" stroke-miterlimit="10"/>
<defs>
<filter id="filter0_d" x="23.6027" y="122.247" width="141.959" height="190.614" filterUnits="userSpaceOnUse" color-interpolation-filters="sRGB">
<feFlood flood-opacity="0" result="BackgroundImageFix"/>
<feColorMatrix in="SourceAlpha" type="matrix" values="0 0 0 0 0 0 0 0 0 0 0 0 0 0 0 0 0 0 127 0"/>
<feOffset dy="5.15606"/>
<feGaussianBlur stdDeviation="2.57803"/>
<feColorMatrix type="matrix" values="0 0 0 0 0 0 0 0 0 0 0 0 0 0 0 0 0 0 0.25 0"/>
<feBlend mode="normal" in2="BackgroundImageFix" result="effect1_dropShadow"/>
<feBlend mode="normal" in="SourceGraphic" in2="effect1_dropShadow" result="shape"/>
</filter>
<filter id="filter1_d" x="0.190618" y="0.646729" width="164.966" height="357.478" filterUnits="userSpaceOnUse" color-interpolation-filters="sRGB">
<feFlood flood-opacity="0" result="BackgroundImageFix"/>
<feColorMatrix in="SourceAlpha" type="matrix" values="0 0 0 0 0 0 0 0 0 0 0 0 0 0 0 0 0 0 127 0"/>
<feOffset dy="5.15606"/>
<feGaussianBlur stdDeviation="2.57803"/>
<feColorMatrix type="matrix" values="0 0 0 0 0 0 0 0 0 0 0 0 0 0 0 0 0 0 0.25 0"/>
<feBlend mode="normal" in2="BackgroundImageFix" result="effect1_dropShadow"/>
<feBlend mode="normal" in="SourceGraphic" in2="effect1_dropShadow" result="shape"/>
</filter>
<linearGradient id="paint0_linear" x1="161.763" y1="211.694" x2="43.1996" y2="215.813" gradientUnits="userSpaceOnUse">
<stop offset="0.02" stop-color="#A41730"/>
<stop offset="1" stop-color="#8C0407"/>
</linearGradient>
<linearGradient id="paint1_linear" x1="157.955" y1="179.277" x2="-21.1735" y2="155.775" gradientUnits="userSpaceOnUse">
<stop stop-color="#FFEC98"/>
<stop offset="1" stop-color="#FFBA07"/>
</linearGradient>
<linearGradient id="paint2_linear" x1="151.625" y1="252.593" x2="88.0471" y2="258.186" gradientUnits="userSpaceOnUse">
<stop stop-color="#99A0C0" stop-opacity="0.21"/>
<stop offset="0.65" stop-color="white" stop-opacity="0.85"/>
</linearGradient>
<linearGradient id="paint3_linear" x1="19772.6" y1="-41269.6" x2="2628.61" y2="-40468.3" gradientUnits="userSpaceOnUse">
<stop stop-color="#99A0C0" stop-opacity="0.21"/>
<stop offset="0.65" stop-color="white" stop-opacity="0.85"/>
</linearGradient>
<linearGradient id="paint4_linear" x1="19665.4" y1="43080.9" x2="5439.82" y2="43745.5" gradientUnits="userSpaceOnUse">
<stop stop-color="#99A0C0" stop-opacity="0.21"/>
<stop offset="0.65" stop-color="white" stop-opacity="0.85"/>
</linearGradient>
</defs>
</svg>
