<?xml version="1.0" standalone="no"?>
<!DOCTYPE svg PUBLIC "-//W3C//DTD SVG 20010904//EN"
 "http://www.w3.org/TR/2001/REC-SVG-20010904/DTD/svg10.dtd">
<svg version="1.0" xmlns="http://www.w3.org/2000/svg"
 width="700.000000pt" height="700.000000pt" viewBox="0 0 700.000000 700.000000"
 preserveAspectRatio="xMidYMid meet">
<metadata>
Created by potrace 1.11, written by Peter Selinger 2001-2013
</metadata>
<g transform="translate(0.000000,700.000000) scale(0.100000,-0.100000)"
fill="#000000" stroke="none">
<path d="M1069 6996 c-2 -2 -26 -6 -54 -9 -223 -25 -470 -146 -649 -316 -182
-175 -288 -374 -352 -661 -5 -19 -9 -1137 -11 -2485 -2 -2696 -6 -2511 58
-2710 71 -216 198 -399 387 -558 116 -98 313 -190 497 -233 77 -18 173 -19
2555 -19 l2475 0 90 22 c121 31 113 28 174 53 111 43 163 72 266 144 255 179
432 468 483 786 10 61 9 4899 -1 4977 -8 68 -44 199 -77 282 -51 131 -140 262
-254 377 -185 185 -363 279 -646 341 -34 7 -4933 17 -4941 9z"/>
</g>
</svg>
