<svg width="15" height="10" viewBox="0 0 15 10" fill="none" xmlns="http://www.w3.org/2000/svg">
<path d="M12.9996 6.66698C12.9996 6.66698 14.1493 7.80177 14.4323 8.32854C14.4404 8.33937 14.4445 8.35021 14.4472 8.35563C14.5623 8.54927 14.5894 8.69958 14.5325 8.81198C14.4377 8.99885 14.1127 9.09094 14.0017 9.09906H11.9704C11.8296 9.09906 11.5344 9.0625 11.1769 8.81604C10.9025 8.62411 10.6322 8.30942 10.3686 8.00258L10.3671 8.00083C9.97302 7.54312 9.63177 7.14771 9.28781 7.14771C9.24413 7.14763 9.2007 7.15449 9.15917 7.16802C8.89917 7.25198 8.56604 7.62302 8.56604 8.61156C8.56604 8.92031 8.32229 9.09771 8.15031 9.09771H7.22C6.90312 9.09771 5.2524 8.98667 3.7899 7.44427C1.99969 5.55521 0.388229 1.76625 0.374687 1.73104C0.273125 1.48594 0.483021 1.35458 0.711875 1.35458H2.76344C3.03698 1.35458 3.12635 1.52115 3.18865 1.66875C3.26177 1.84073 3.5299 2.52458 3.97 3.29375C4.68365 4.54771 5.12104 5.05688 5.47177 5.05688C5.53753 5.0561 5.60213 5.03937 5.66 5.00812C6.11771 4.75354 6.0324 3.12177 6.01208 2.78323C6.01208 2.71958 6.01073 2.05333 5.77646 1.73375C5.60854 1.50219 5.32281 1.41417 5.14948 1.38167C5.21964 1.28486 5.31207 1.20636 5.41896 1.15281C5.73312 0.995728 6.29917 0.972708 6.86115 0.972708H7.17396C7.78333 0.980833 7.94042 1.0201 8.16115 1.07562C8.60802 1.1826 8.6175 1.47104 8.57823 2.45823C8.56604 2.73854 8.55385 3.05542 8.55385 3.42917C8.55385 3.51042 8.54979 3.59708 8.54979 3.68917L8.54969 3.69283C8.53617 4.19433 8.52086 4.76224 8.87479 4.99594C8.92107 5.02495 8.97455 5.04043 9.02917 5.04062C9.1524 5.04062 9.52344 5.04062 10.5282 3.31677C10.8381 2.76191 11.1074 2.18533 11.334 1.59156C11.3543 1.55635 11.4139 1.44802 11.4843 1.40604C11.5362 1.37955 11.5939 1.36607 11.6522 1.36677H14.064C14.3267 1.36677 14.5068 1.40604 14.5406 1.5076C14.6002 1.66875 14.5298 2.16031 13.4289 3.65125L12.9373 4.2999C11.9393 5.60802 11.9393 5.67438 12.9996 6.66698Z" fill="#8764C1"/>
</svg>
