<svg width="27" height="26" viewBox="0 0 27 26" fill="none" xmlns="http://www.w3.org/2000/svg">
<mask id="mask0" mask-type="alpha" maskUnits="userSpaceOnUse" x="0" y="0" width="27" height="26">
<path fill-rule="evenodd" clip-rule="evenodd" d="M6.05423 0.0127754C5.47439 0.0333862 4.72708 0.0787506 4.38742 0.147306C3.86893 0.25201 3.37928 0.410759 2.97208 0.618299C2.49366 0.86212 2.06487 1.1732 1.69462 1.54288C1.32353 1.91326 1.01119 2.34245 0.766394 2.82159C0.559434 3.2266 0.400775 3.71327 0.295625 4.22882C0.225689 4.57191 0.179435 5.32479 0.158468 5.90837C0.149965 6.14689 0.145602 6.45557 0.145602 6.59794L0.143555 19.4C0.143555 19.5418 0.147873 19.8506 0.156331 20.0894C0.176943 20.6692 0.222305 21.4165 0.290906 21.7561C0.395566 22.2746 0.554359 22.7643 0.761853 23.1715C1.00572 23.6499 1.31676 24.0786 1.68643 24.4489C2.05681 24.82 2.48605 25.1323 2.96514 25.3772C3.3702 25.5841 3.85686 25.7428 4.37237 25.8479C4.71546 25.9179 5.46838 25.9641 6.05196 25.985C6.29039 25.9936 6.59912 25.998 6.74148 25.998L19.5435 26C19.6854 26 19.9941 25.9957 20.2328 25.9872C20.8127 25.9666 21.56 25.9212 21.8996 25.8526C22.4181 25.7479 22.9078 25.5892 23.315 25.3817C23.7934 25.1378 24.2222 24.8267 24.5924 24.4571C24.9635 24.0867 25.2758 23.6575 25.5207 23.1784C25.7276 22.7733 25.8863 22.2867 25.9914 21.7712C26.0614 21.4281 26.1076 20.6751 26.1286 20.0916C26.1371 19.8531 26.1415 19.5444 26.1415 19.4021L26.1436 6.59999C26.1436 6.45815 26.1392 6.14938 26.1307 5.91063C26.1101 5.33084 26.0648 4.58353 25.9962 4.24387C25.8915 3.72538 25.7327 3.23573 25.5252 2.82853C25.2814 2.35006 24.9703 1.92132 24.6007 1.55102C24.2303 1.18002 23.801 0.86764 23.3219 0.622839C22.9169 0.415878 22.4302 0.257175 21.9147 0.152071C21.5716 0.0821342 20.8187 0.035881 20.2352 0.0149574C19.9966 0.00636482 19.6879 0.00204659 19.5456 0.00204659L6.74353 0C6.6017 0 6.29293 0.00427246 6.05423 0.0127754Z" fill="white"/>
</mask>
<g mask="url(#mask0)">
<path d="M6.05423 0.0127754C5.47439 0.0333862 4.72708 0.0787506 4.38742 0.147306C3.86893 0.25201 3.37928 0.410759 2.97208 0.618299C2.49366 0.86212 2.06487 1.1732 1.69462 1.54288C1.32353 1.91326 1.01119 2.34245 0.766394 2.82159C0.559434 3.2266 0.400775 3.71327 0.295625 4.22882C0.225689 4.57191 0.179435 5.32479 0.158468 5.90837C0.149965 6.14689 0.145602 6.45557 0.145602 6.59794L0.143555 19.4C0.143555 19.5418 0.147873 19.8506 0.156331 20.0894C0.176943 20.6692 0.222305 21.4165 0.290906 21.7561C0.395566 22.2746 0.554359 22.7643 0.761853 23.1715C1.00572 23.6499 1.31676 24.0786 1.68643 24.4489C2.05681 24.82 2.48605 25.1323 2.96514 25.3772C3.3702 25.5841 3.85686 25.7428 4.37237 25.8479C4.71546 25.9179 5.46838 25.9641 6.05196 25.985C6.29039 25.9936 6.59912 25.998 6.74148 25.998L19.5435 26C19.6854 26 19.9941 25.9957 20.2328 25.9872C20.8127 25.9666 21.56 25.9212 21.8996 25.8526C22.4181 25.7479 22.9078 25.5892 23.315 25.3817C23.7934 25.1378 24.2222 24.8267 24.5924 24.4571C24.9635 24.0867 25.2758 23.6575 25.5207 23.1784C25.7276 22.7733 25.8863 22.2867 25.9914 21.7712C26.0614 21.4281 26.1076 20.6751 26.1286 20.0916C26.1371 19.8531 26.1415 19.5444 26.1415 19.4021L26.1436 6.59999C26.1436 6.45815 26.1392 6.14938 26.1307 5.91063C26.1101 5.33084 26.0648 4.58353 25.9962 4.24387C25.8915 3.72538 25.7327 3.23573 25.5252 2.82853C25.2814 2.35006 24.9703 1.92132 24.6007 1.55102C24.2303 1.18002 23.801 0.86764 23.3219 0.622839C22.9169 0.415878 22.4302 0.257175 21.9147 0.152071C21.5716 0.0821342 20.8187 0.035881 20.2352 0.0149574C19.9966 0.00636482 19.6879 0.00204659 19.5456 0.00204659L6.74353 0C6.6017 0 6.29293 0.00427246 6.05423 0.0127754Z" fill="url(#paint0_linear)"/>
<path fill-rule="evenodd" clip-rule="evenodd" d="M17.6507 14.7113C17.4191 14.5955 16.2805 14.0354 16.0682 13.9581C15.856 13.8809 15.7016 13.8423 15.5473 14.074C15.3929 14.3058 14.9491 14.8272 14.814 14.9817C14.6789 15.1362 14.5438 15.1556 14.3123 15.0396C14.0807 14.9238 13.3345 14.6793 12.45 13.8906C11.7616 13.2768 11.2969 12.5186 11.1617 12.2869C11.0267 12.0551 11.1474 11.9299 11.2633 11.8144C11.3675 11.7107 11.4949 11.5441 11.6107 11.4089C11.7264 11.2737 11.765 11.1771 11.8422 11.0226C11.9194 10.8681 11.8808 10.7329 11.8229 10.617C11.765 10.5012 11.3019 9.3617 11.1089 8.89819C10.921 8.44679 10.7301 8.50786 10.5879 8.50079C10.453 8.49406 10.2985 8.49264 10.1441 8.49264C9.9897 8.49264 9.73885 8.5506 9.52654 8.78231C9.31429 9.01407 8.71606 9.57419 8.71606 10.7136C8.71606 11.8531 9.54586 12.9539 9.66165 13.1084C9.77744 13.2629 11.2946 15.6012 13.6176 16.604C14.1701 16.8425 14.6014 16.9849 14.9377 17.0917C15.4925 17.2678 15.9973 17.243 16.3963 17.1834C16.8412 17.1169 17.7664 16.6233 17.9594 16.0826C18.1524 15.5418 18.1524 15.0783 18.0945 14.9817C18.0366 14.8852 17.8822 14.8272 17.6507 14.7113ZM13.4255 20.4787H13.4223C12.0401 20.4782 10.6844 20.107 9.50167 19.4053L9.22037 19.2384L6.3049 20.003L7.0831 17.1613L6.89991 16.87C6.12883 15.6439 5.72159 14.2268 5.72217 12.7717C5.72386 8.52586 9.1795 5.07155 13.4285 5.07155C15.486 5.07235 17.4201 5.87442 18.8745 7.32995C20.3289 8.78553 21.1294 10.7203 21.1286 12.778C21.1268 17.0242 17.6712 20.4787 13.4255 20.4787ZM19.9813 6.2239C18.2315 4.47263 15.9045 3.50772 13.4253 3.50674C8.31695 3.50674 4.15936 7.66274 4.15732 12.7711C4.15665 14.4041 4.58339 15.998 5.3944 17.403L4.07959 22.2041L8.99268 20.9158C10.3464 21.6539 11.8704 22.0428 13.4216 22.0435H13.4254H13.4254C18.5333 22.0435 22.6912 17.887 22.6933 12.7785C22.6942 10.3029 21.7312 7.97511 19.9813 6.2239Z" fill="white"/>
</g>
<defs>
<linearGradient id="paint0_linear" x1="0.143527" y1="26" x2="0.143527" y2="-2.98731e-05" gradientUnits="userSpaceOnUse">
<stop stop-color="#25CF43"/>
<stop offset="1" stop-color="#61FD7D"/>
</linearGradient>
</defs>
</svg>
