<svg width="27" height="28" viewBox="0 0 27 28" fill="none" xmlns="http://www.w3.org/2000/svg">
<path fill-rule="evenodd" clip-rule="evenodd" d="M19.9289 16.5737C19.6042 16.412 18.0078 15.6302 17.7101 15.5223C17.4124 15.4145 17.196 15.3606 16.9796 15.6841C16.7631 16.0076 16.1408 16.7355 15.9513 16.9512C15.762 17.1668 15.5726 17.1939 15.2479 17.032C14.9231 16.8703 13.8769 16.5291 12.6366 15.4281C11.6714 14.5713 11.0197 13.5129 10.8302 13.1894C10.6408 12.8659 10.8101 12.691 10.9727 12.5299C11.1187 12.3852 11.2973 12.1525 11.4597 11.9638C11.622 11.775 11.6762 11.6403 11.7844 11.4246C11.8926 11.2089 11.8385 11.0202 11.7573 10.8584C11.6762 10.6967 11.0268 9.10608 10.7562 8.45906C10.4926 7.82894 10.2249 7.91419 10.0256 7.90431C9.83641 7.89493 9.61975 7.89294 9.40327 7.89294C9.18679 7.89294 8.83505 7.97385 8.53736 8.2973C8.23973 8.62082 7.40091 9.40269 7.40091 10.9932C7.40091 12.5838 8.56445 14.1205 8.72681 14.3362C8.88916 14.5519 11.0165 17.816 14.2738 19.2157C15.0485 19.5487 15.6533 19.7475 16.1249 19.8965C16.9028 20.1424 17.6106 20.1077 18.1701 20.0245C18.794 19.9317 20.0913 19.2427 20.3619 18.4878C20.6324 17.733 20.6324 17.086 20.5513 16.9512C20.4701 16.8164 20.2536 16.7355 19.9289 16.5737ZM14.0034 24.6243H13.9991C12.0609 24.6236 10.1599 24.1055 8.50154 23.126L8.1071 22.893L4.01905 23.9603L5.11024 19.9936L4.85338 19.5869C3.77217 17.8754 3.20114 15.8972 3.20195 13.8661C3.20433 7.93917 8.0498 3.11723 14.0077 3.11723C16.8927 3.11835 19.6047 4.23797 21.644 6.26978C23.6833 8.30165 24.8058 11.0025 24.8047 13.8748C24.8022 19.8021 19.9568 24.6243 14.0034 24.6243ZM23.1972 4.72625C20.7436 2.28163 17.4807 0.934692 14.0044 0.933325C6.8415 0.933325 1.01176 6.73475 1.00889 13.8657C1.00795 16.1451 1.60633 18.3702 2.74352 20.3314L0.899902 27.0333L7.78899 25.2349C9.68711 26.2652 11.8242 26.8082 13.9992 26.8091H14.0045H14.0046C21.1667 26.8091 26.997 21.0069 26.9999 13.876C27.0012 10.4202 25.6508 7.17081 23.1972 4.72625Z" fill="white"/>
</svg>
