<svg width="40" height="39" viewBox="0 0 40 39" fill="none" xmlns="http://www.w3.org/2000/svg">
<g filter="url(#filter0_d)">
<g filter="url(#filter1_b)">
<path d="M5.85352 19.5006C5.85352 27.1185 12.1873 33.2939 20.0003 33.2939C27.8134 33.2939 34.1471 27.1185 34.1471 19.5006C34.1471 11.8828 27.8134 5.70731 20.0003 5.70731C12.1873 5.70731 5.85352 11.8828 5.85352 19.5006Z" fill="white" fill-opacity="0.65"/>
</g>
<g style="mix-blend-mode:screen">
<g style="mix-blend-mode:screen">
<path fill-rule="evenodd" clip-rule="evenodd" d="M10.9739 27.8602C9.27813 26.1196 8.14984 23.9278 7.73167 21.562C7.31351 19.1962 7.62426 16.7626 8.62463 14.569C9.625 12.3754 11.2701 10.5202 13.3518 9.23821C15.4335 7.95617 17.8584 7.3048 20.3198 7.36647C22.7812 7.42813 25.1686 8.20007 27.18 9.58466C29.1915 10.9692 30.7366 12.9043 31.6201 15.1451C32.5036 17.3859 32.6858 19.8319 32.1436 22.1736C31.6013 24.5154 30.3591 26.6478 28.5739 28.3012C27.3922 29.4057 25.9978 30.271 24.4712 30.8471C22.9446 31.4232 21.316 31.6987 19.6796 31.6577C18.0432 31.6167 16.4313 31.26 14.9371 30.6082C13.4428 29.9564 12.0958 29.0224 10.9739 27.8602ZM29.743 29.5012C27.7144 31.3801 25.1599 32.6302 22.4026 33.0935C19.6453 33.5568 16.809 33.2125 14.2523 32.1042C11.6957 30.9958 9.53356 29.1731 8.03936 26.8666C6.54516 24.5601 5.786 21.8734 5.85787 19.1463C5.92974 16.4191 6.82942 13.774 8.44314 11.5454C10.0569 9.31674 12.3121 7.60473 14.9238 6.62583C17.5354 5.64694 20.3861 5.44511 23.1154 6.04588C25.8447 6.64665 28.33 8.02304 30.257 10.001C32.841 12.6533 34.2385 16.1979 34.1421 19.8549C34.0458 23.5119 32.4634 26.9818 29.743 29.5012Z" fill="url(#paint0_linear)"/>
</g>
</g>
<path d="M17.6405 23.4551L17.6405 15.8371L24.5799 19.6461L17.6405 23.4551Z" fill="white"/>
</g>
<defs>
<filter id="filter0_d" x="2.85299" y="4.20701" width="34.2942" height="33.5872" filterUnits="userSpaceOnUse" color-interpolation-filters="sRGB">
<feFlood flood-opacity="0" result="BackgroundImageFix"/>
<feColorMatrix in="SourceAlpha" type="matrix" values="0 0 0 0 0 0 0 0 0 0 0 0 0 0 0 0 0 0 127 0"/>
<feOffset dy="1.50002"/>
<feGaussianBlur stdDeviation="1.50002"/>
<feColorMatrix type="matrix" values="0 0 0 0 0 0 0 0 0 0 0 0 0 0 0 0 0 0 0.25 0"/>
<feBlend mode="normal" in2="BackgroundImageFix" result="effect1_dropShadow"/>
<feBlend mode="normal" in="SourceGraphic" in2="effect1_dropShadow" result="shape"/>
</filter>
<filter id="filter1_b" x="-6.89666" y="-7.04266" width="53.7939" height="53.087" filterUnits="userSpaceOnUse" color-interpolation-filters="sRGB">
<feFlood flood-opacity="0" result="BackgroundImageFix"/>
<feGaussianBlur in="BackgroundImage" stdDeviation="6.37509"/>
<feComposite in2="SourceAlpha" operator="in" result="effect1_backgroundBlur"/>
<feBlend mode="normal" in="SourceGraphic" in2="effect1_backgroundBlur" result="shape"/>
</filter>
<linearGradient id="paint0_linear" x1="14.3413" y1="31.087" x2="9.76204" y2="4.28854" gradientUnits="userSpaceOnUse">
<stop stop-color="white" stop-opacity="0.54"/>
<stop offset="0.0758361" stop-color="#1C0836" stop-opacity="0.22"/>
</linearGradient>
</defs>
</svg>
