<svg width="16" height="16" viewBox="0 0 16 16" fill="none" xmlns="http://www.w3.org/2000/svg">
<path d="M12.4858 0.685791H3.51176C1.95258 0.685791 0.685059 1.95411 0.685059 3.51249V12.4874C0.685059 14.0466 1.95338 15.3141 3.51176 15.3141H12.4867C14.0458 15.3141 15.3134 14.0458 15.3134 12.4874V3.51249C15.3133 1.95411 14.0449 0.685791 12.4858 0.685791ZM13.3763 2.32137L13.6964 2.32057V4.74833L11.2508 4.75645L11.2427 2.32869L13.3763 2.32137ZM7.99921 5.55264C10.028 5.55264 10.4464 7.45713 10.4464 8.00066C10.4464 9.34859 9.34794 10.4471 7.99921 10.4471C6.64967 10.4471 5.55199 9.34859 5.55199 8.00066C5.5511 7.45713 5.9704 5.55264 7.99921 5.55264ZM13.7103 12.3102C13.7103 13.083 13.0822 13.7118 12.3079 13.7118H3.66286C2.88933 13.7118 2.26049 13.0838 2.26049 12.3102V6.37168H4.29171C4.10321 6.8356 3.99674 7.46936 3.99674 8.00075C3.99674 10.2059 5.79074 12.0007 7.99671 12.0007C10.2027 12.0007 11.9958 10.2059 11.9958 8.00075C11.9958 7.46936 11.8893 6.8356 11.7016 6.37168H13.7085V12.3102H13.7103Z" fill="#8764C1"/>
</svg>
