<?xml version="1.0" encoding="utf-8"?>
<!-- Generator: Adobe Illustrator 24.3.0, SVG Export Plug-In . SVG Version: 6.00 Build 0)  -->
<svg version="1.1" id="Слой_1" xmlns="http://www.w3.org/2000/svg" xmlns:xlink="http://www.w3.org/1999/xlink" x="0px" y="0px"
	 viewBox="0 0 100 46" style="enable-background:new 0 0 100 46;" xml:space="preserve">
<style type="text/css">
	.st0{fill:#8764C1;}
	.st1{fill:#8A0007;}
</style>
<path class="st0" d="M-7.4-53.2h2.8v9.8h-2.8v-6.9l-2.2,1.2V-52L-7.4-53.2z M-3.1-46.4v-2.4h5.6v2.4H-3.1z M14.6-53.2v9.8h-2.8v-5.4
	l-1.5,4.2H8.2l-1.5-4.2v5.4H3.9v-9.8h2.8h0.7l1.8,5.1l1.8-5.1H14.6z M16-53.2h2.8v9.8H16V-53.2z M25.2-53.2H28v9.8h-2.2L23-48v4.6
	h-2.8v-9.8h2.2l2.8,4.6V-53.2z M29.4-43.4v-2.8h2.8v2.8H29.4z M39-43.4l-2.1-3.1h-0.5v3.1h-2.8v-9.8h2.8h1c1.1,0,2,0.3,2.7,1
	c0.7,0.6,1,1.5,1,2.5c0,1.2-0.5,2.1-1.5,2.7l2.5,3.6H39z M37.4-50.6h-1v1.7h1c0.3,0,0.5-0.1,0.7-0.2c0.2-0.1,0.2-0.4,0.2-0.6
	s-0.1-0.5-0.2-0.6C37.9-50.6,37.7-50.6,37.4-50.6z M48.7-44c-0.7,0.6-1.6,0.8-2.7,0.8s-2-0.3-2.7-0.8c-0.7-0.6-1-1.4-1-2.4v-6.8H45
	v6.2c0,0.7,0.3,1.1,1,1.1c0.7,0,1-0.4,1-1.1v-6.2h2.8v6.8C49.7-45.4,49.4-44.6,48.7-44z"/>
<path class="st1" d="M-6.8-40.8l54.1-1.2l-54.1,4.5l-0.9,0.1l-0.1-3.4H-6.8z"/>
<rect x="58.9" y="-25.9" style="fill:none;" width="82.2" height="20.3"/>
<text transform="matrix(1 0 0 1 58.9154 -14.1712)" class="st0" style="font-family:'Mont-HeavyDEMO'; font-size:16px;">EFFIRIO</text>
<g>
	<path class="st0" d="M23.2,25.9h4.2v2.7h-7.3V17.4h7.2v2.7h-4.1v1.6h3.7v2.5h-3.7V25.9z"/>
	<path class="st0" d="M36.3,20.2h-4V22h3.6v2.7h-3.6v3.9h-3.1V17.4h7.1V20.2z"/>
	<path class="st0" d="M45.1,20.2h-4V22h3.6v2.7h-3.6v3.9H38V17.4h7.1V20.2z"/>
	<path class="st0" d="M46.7,28.6V17.4h3.1v11.2H46.7z"/>
	<path class="st0" d="M58,28.6l-1.8-3.4h-1.1v3.4H52V17.4h4.8c0.8,0,1.5,0.2,2.1,0.5c0.6,0.3,1.1,0.8,1.5,1.4s0.5,1.3,0.5,2.1
		c0,0.4-0.1,0.9-0.2,1.3s-0.3,0.8-0.6,1.1c-0.3,0.3-0.6,0.6-1,0.8l2.2,4.1H58z M55.1,20.1v2.4h1.4c0.4,0,0.7-0.1,1-0.3
		c0.2-0.2,0.4-0.5,0.4-0.9c0-0.2-0.1-0.4-0.2-0.6c-0.1-0.2-0.3-0.3-0.5-0.4c-0.2-0.1-0.5-0.2-0.7-0.2H55.1z"/>
	<path class="st0" d="M62.8,28.6V17.4H66v11.2H62.8z"/>
	<path class="st0" d="M73.7,28.9c-1.8,0-3.3-0.6-4.4-1.7c-1.2-1.1-1.7-2.5-1.7-4.2c0-1.7,0.6-3.1,1.7-4.2c1.2-1.1,2.6-1.7,4.4-1.7
		c1.8,0,3.3,0.6,4.4,1.7s1.7,2.5,1.7,4.2c0,1.7-0.6,3.1-1.7,4.2C77,28.3,75.5,28.9,73.7,28.9z M71.6,25.2c0.6,0.6,1.3,0.8,2.1,0.8
		s1.6-0.3,2.1-0.8c0.5-0.6,0.8-1.3,0.8-2.2c0-0.9-0.3-1.6-0.8-2.2c-0.5-0.6-1.3-0.8-2.1-0.8s-1.6,0.3-2.1,0.8
		c-0.6,0.6-0.8,1.3-0.8,2.2C70.8,23.9,71,24.6,71.6,25.2z"/>
</g>
</svg>
