<svg width="375" height="1108" viewBox="0 0 375 1108" fill="none" xmlns="http://www.w3.org/2000/svg">
<path d="M0 0H375V1108H0V0Z" fill="#131933"/>
<path d="M31.9137 978.692C39.831 985.402 44.8256 995.003 45.8179 1005.42C46.8101 1015.83 43.7203 1026.22 37.2162 1034.35L21.0139 1054.56C15.5865 1061.18 8.22975 1065.88 0 1068L0 954C3.76403 955.419 7.22916 957.547 10.2124 960.272L31.9137 978.692Z" fill="url(#paint0_linear)"/>
<path d="M255.1 696.967C240.983 708.683 232.077 725.482 230.32 743.71C228.562 761.939 234.096 780.122 245.716 794.304L270.974 825.357C281.832 838.614 297.199 847.43 314.152 850.128C331.106 852.825 348.462 849.216 362.92 839.987L375 832.323V665.317C358.927 637.947 322.388 640.734 291.04 666.909L255.1 696.967Z" fill="url(#paint1_linear)"/>
<path d="M154.955 231.575C169.061 243.255 177.943 259.932 179.685 278.009C181.427 296.086 175.89 314.113 164.267 328.201L138.933 358.896C116.402 386.137 89.1655 396.106 46.7078 373.504C32.4885 364.226 27.4817 361.166 21.2733 357.021C6.4532 346.559 1.146 345.671 0.144641 340.144C0.144641 340.045 0.0445048 339.058 0.0445048 337.084C-0.0556311 333.037 0.0445048 329.978 0.0445048 329.287V229.404C0.0445048 225.851 22.6752 189.727 64.7323 186.273C92.6702 183.904 113.098 197.623 118.806 201.768L154.955 231.575Z" fill="url(#paint2_linear)"/>
<path d="M0 419.684V467.359L14.3189 484.923C19.0277 490.65 25.6845 494.457 33.0264 495.623C40.3682 496.788 47.8846 495.231 54.1495 491.247L81.073 474.084C84.5146 471.897 87.4741 469.037 89.772 465.678C92.0699 462.318 93.6584 458.529 94.441 454.54C95.2236 450.552 95.1841 446.446 94.3249 442.473C93.4657 438.5 91.8046 434.742 89.4425 431.427L69.9809 403.825C67.5768 400.412 64.4867 397.533 60.9065 395.37C57.3263 393.207 53.3338 391.808 49.182 391.261C45.0302 390.713 40.8094 391.03 36.787 392.191C32.7646 393.352 29.0282 395.331 25.8143 398.004C17.1423 405.331 8.77283 412.457 0 419.684Z" fill="url(#paint3_linear)"/>
<defs>
<linearGradient id="paint0_linear" x1="2045.16" y1="12504.5" x2="-301.165" y2="12443.4" gradientUnits="userSpaceOnUse">
<stop offset="0.02" stop-color="#CD8DFF"/>
<stop offset="0.286458" stop-color="#C984FF"/>
<stop offset="0.94" stop-color="#D5A2FF"/>
</linearGradient>
<linearGradient id="paint1_linear" x1="237.24" y1="741.714" x2="389.261" y2="752.629" gradientUnits="userSpaceOnUse">
<stop offset="0.02" stop-color="#CD92FB"/>
<stop offset="0.79" stop-color="#8764C1"/>
</linearGradient>
<linearGradient id="paint2_linear" x1="171.587" y1="279.523" x2="-13.7065" y2="292.982" gradientUnits="userSpaceOnUse">
<stop offset="0.02" stop-color="#CD8DFF"/>
<stop offset="0.6" stop-color="#C984FF"/>
<stop offset="0.94" stop-color="#C781FF"/>
</linearGradient>
<linearGradient id="paint3_linear" x1="4.5175" y1="440.882" x2="98.4327" y2="447.639" gradientUnits="userSpaceOnUse">
<stop offset="0.21" stop-color="#714CA8"/>
<stop offset="1" stop-color="#CEA4EF"/>
</linearGradient>
</defs>
</svg>
