<svg width="27" height="27" viewBox="0 0 27 27" fill="none" xmlns="http://www.w3.org/2000/svg">
<path fill-rule="evenodd" clip-rule="evenodd" d="M19.6855 16.1797C19.3496 16.0123 17.6981 15.2035 17.3902 15.092C17.0823 14.9805 16.8584 14.9247 16.6345 15.2593C16.4105 15.594 15.7668 16.347 15.5708 16.5701C15.3749 16.7932 15.179 16.8212 14.843 16.6538C14.5071 16.4865 13.4248 16.1334 12.1418 14.9945C11.1432 14.1081 10.4691 13.0133 10.2731 12.6786C10.0772 12.3439 10.2522 12.163 10.4204 11.9964C10.5715 11.8466 10.7563 11.606 10.9242 11.4107C11.0922 11.2155 11.1482 11.076 11.2602 10.853C11.3721 10.6298 11.3161 10.4346 11.2321 10.2673C11.1482 10.0999 10.4764 8.4545 10.1965 7.78516C9.92387 7.13331 9.64691 7.22151 9.44072 7.21128C9.245 7.20158 9.02086 7.19952 8.79692 7.19952C8.57298 7.19952 8.2091 7.28322 7.90115 7.61782C7.59326 7.95249 6.72552 8.76133 6.72552 10.4067C6.72552 12.0522 7.92918 13.6418 8.09713 13.8649C8.26509 14.0881 10.4658 17.4647 13.8354 18.9127C14.6368 19.2572 15.2625 19.4628 15.7503 19.617C16.555 19.8714 17.2873 19.8355 17.8661 19.7494C18.5114 19.6534 19.8535 18.9406 20.1334 18.1598C20.4133 17.3789 20.4133 16.7096 20.3293 16.5701C20.2454 16.4307 20.0214 16.347 19.6855 16.1797ZM13.5555 24.5078H13.551C11.5459 24.5071 9.57939 23.971 7.86385 22.9578L7.45581 22.7168L3.2268 23.8209L4.35561 19.7174L4.08989 19.2967C2.97141 17.5261 2.38068 15.4797 2.38152 13.3786C2.38398 7.24731 7.39653 2.25909 13.5599 2.25909C16.5444 2.26025 19.3499 3.41848 21.4595 5.52035C23.5692 7.62228 24.7303 10.4162 24.7292 13.3876C24.7266 19.5193 19.7141 24.5078 13.5555 24.5078ZM23.0662 3.92372C20.528 1.3948 17.1526 0.00141525 13.5563 0C6.14648 0 0.115717 6.00148 0.112746 13.3783C0.111778 15.7363 0.730784 18.0381 1.90719 20.067L0 27L7.12664 25.1396C9.09021 26.2054 11.301 26.7671 13.551 26.7681H13.5565H13.5565C20.9657 26.7681 26.997 20.7658 27 13.3889C27.0014 9.81404 25.6044 6.45257 23.0662 3.92372Z" fill="url(#paint0_linear)"/>
<defs>
<linearGradient id="paint0_linear" x1="-2.89679e-05" y1="27" x2="-2.89679e-05" y2="-3.10221e-05" gradientUnits="userSpaceOnUse">
<stop stop-color="#25CF43"/>
<stop offset="1" stop-color="#61FD7D"/>
</linearGradient>
</defs>
</svg>
